<mxfile host="app.diagrams.net" modified="2023-07-11T14:38:28.946Z" agent="Mozilla/5.0 (Windows NT 10.0; Win64; x64; rv:109.0) Gecko/20100101 Firefox/115.0" version="21.6.1" etag="yH6QqkwgP7XCfVGY6lxl" type="github">
  <diagram name="Page-1" id="1OkXnoBN4lo6xH4HQfAN">
    <mxGraphModel>
      <root>
        <mxCell id="0" />
        <mxCell id="1" parent="0" />
      </root>
    </mxGraphModel>
  </diagram>
</mxfile>
